<?xml version="1.0" encoding="UTF-8"?>
<svg id="Camada_2" data-name="Camada 2" xmlns="http://www.w3.org/2000/svg" viewBox="0 0 27.96 9.95">
  <defs>
    <style>
      .cls-1 {
        font-family: Montserrat-Bold, Montserrat;
        font-size: 7.07px;
        font-weight: 700;
      }

      .cls-1, .cls-2, .cls-3 {
        fill: #fff;
      }

      .cls-2 {
        font-family: Montserrat-Light, Montserrat;
        font-size: 2.59px;
        font-weight: 300;
        letter-spacing: .35em;
      }

      .cls-4 {
        letter-spacing: -.02em;
      }

      .cls-5 {
        letter-spacing: -.04em;
      }

      .cls-6 {
        letter-spacing: 0em;
      }
    </style>
  </defs>
  <g id="Camada_1-2" data-name="Camada 1">
    <g>
      <text class="cls-1" transform="translate(7.9 6.01)"><tspan class="cls-5" x="0" y="0">A</tspan><tspan class="cls-4" x="5.15" y="0">V</tspan><tspan class="cls-6" x="10.32" y="0">E</tspan><tspan x="15.01" y="0">X</tspan></text>
      <g>
        <g>
          <path class="cls-3" d="M6.61,5.01l-.59,1L2.95,1.06h1.43s2.2,3.45,2.2,3.45c.09.14.1.36.03.51Z"/>
          <path class="cls-3" d="M7.28,3.49l-1.3.19,1.58-2.62h1.3s-1.26,2.18-1.26,2.18c0,0,0,0,0,0-.06.13-.17.22-.33.25Z"/>
        </g>
        <g>
          <path class="cls-3" d="M2.25,2.06l.59-1,3.07,4.95h-1.43s-2.2-3.45-2.2-3.45c-.09-.14-.1-.36-.03-.51Z"/>
          <path class="cls-3" d="M1.58,3.58l1.3-.19-1.58,2.62H0s1.26-2.18,1.26-2.18c0,0,0,0,0,0,.06-.13.17-.22.33-.25Z"/>
        </g>
      </g>
    </g>
    <text class="cls-2" transform="translate(5.19 9.28)"><tspan x="0" y="0">FINANCE</tspan></text>
  </g>
</svg>